<?xml version="1.0" standalone="no"?>
<!DOCTYPE svg PUBLIC "-//W3C//DTD SVG 20010904//EN"
 "http://www.w3.org/TR/2001/REC-SVG-20010904/DTD/svg10.dtd">
<svg version="1.0" xmlns="http://www.w3.org/2000/svg"
 width="1024.000000pt" height="1024.000000pt" viewBox="0 0 1024.000000 1024.000000"
 preserveAspectRatio="xMidYMid meet">
<metadata>
Created by potrace 1.14, written by Peter Selinger 2001-2017
</metadata>
<g transform="translate(0.000000,1024.000000) scale(0.100000,-0.100000)"
fill="#000000" stroke="none">
<path d="M8089 9192 c-17 -7 -85 -61 -128 -101 -81 -74 -378 -245 -481 -276
-14 -4 -29 -11 -35 -15 -5 -3 -84 -30 -175 -60 -91 -29 -174 -56 -185 -61 -11
-4 -40 -12 -65 -18 -25 -5 -72 -17 -105 -25 -145 -38 -357 -76 -535 -97 -47
-5 -114 -14 -150 -20 -72 -11 -243 -24 -540 -39 -107 -6 -244 -15 -305 -20
-60 -5 -177 -14 -260 -20 -336 -22 -754 -91 -812 -133 -7 -5 -17 -6 -22 -3 -6
4 -18 2 -28 -3 -26 -13 -150 -51 -171 -51 -13 -1 -11 -4 8 -15 34 -20 60 -20
34 0 -18 14 -18 14 9 15 15 0 27 -5 27 -11 0 -5 4 -8 10 -4 5 3 18 0 29 -6 16
-11 17 -14 5 -27 -8 -8 -31 -14 -51 -14 -28 0 -42 -7 -61 -30 -17 -20 -28 -26
-35 -19 -21 21 -48 11 -68 -24 -12 -19 -25 -33 -29 -30 -4 3 -6 -4 -3 -16 5
-19 3 -20 -35 -14 -45 6 -68 -11 -27 -21 34 -9 23 -21 -28 -30 -23 -4 -37 -9
-30 -11 7 -2 9 -11 6 -19 -4 -10 0 -12 11 -8 13 5 15 2 7 -17 -9 -26 -40 -39
-42 -17 0 7 -2 37 -2 65 -1 29 -5 53 -9 53 -17 0 -38 -13 -38 -25 0 -7 -10
-20 -22 -28 -19 -13 -20 -16 -5 -16 9 -1 17 -5 17 -11 0 -5 7 -10 15 -10 8 0
15 -4 15 -10 0 -5 -4 -10 -10 -10 -5 0 -10 -6 -10 -13 0 -7 -14 -21 -31 -31
-30 -18 -30 -18 -36 4 -5 18 -11 21 -32 15 -14 -3 -45 -10 -68 -14 -23 -4 -49
-14 -58 -21 -14 -12 -13 -15 10 -30 22 -14 24 -19 11 -29 -8 -7 -41 -15 -73
-18 -32 -3 -68 -12 -80 -19 -27 -17 -65 -18 -81 -2 -9 9 -15 9 -24 0 -14 -14
9 -45 29 -38 16 6 18 -10 2 -20 -6 -3 -15 -1 -19 6 -4 7 -21 12 -36 12 -16 0
-32 5 -36 11 -4 7 -49 -31 -113 -96 -59 -59 -102 -107 -96 -107 6 0 18 -14 27
-31 17 -34 1 -32 -25 4 -13 18 -15 17 -47 -19 -36 -40 -40 -49 -24 -59 6 -3
10 -14 10 -23 0 -13 -2 -13 -15 4 -14 19 -15 18 -35 -6 -49 -61 -88 -117 -94
-137 -4 -13 -16 -33 -27 -45 -25 -29 -99 -163 -99 -181 0 -7 -5 -18 -12 -25
-13 -13 -26 -48 -64 -167 -14 -44 -28 -87 -32 -95 -20 -50 -41 -176 -62 -370
-23 -215 32 -564 127 -795 121 -297 346 -577 609 -757 252 -171 463 -256 839
-337 84 -18 464 -62 737 -86 585 -51 977 -94 1078 -119 189 -46 234 -159 98
-248 -50 -34 -219 -96 -398 -148 -41 -12 -86 -25 -100 -30 -33 -11 -144 -44
-250 -74 -47 -14 -139 -41 -205 -61 -66 -20 -165 -49 -220 -65 -184 -55 -679
-221 -765 -257 -165 -70 -207 -89 -360 -164 -130 -65 -452 -264 -501 -310 -8
-8 -32 -27 -54 -44 -85 -63 -154 -124 -294 -260 -224 -217 -416 -437 -543
-620 -19 -27 -55 -81 -81 -118 -130 -187 -324 -555 -328 -622 -5 -82 0 -103
35 -139 26 -28 41 -36 69 -36 54 0 72 10 202 115 163 130 360 245 600 350 68
30 319 108 495 155 71 19 266 55 510 94 154 25 338 41 909 81 429 30 768 77
1006 140 471 124 859 311 1164 560 160 129 277 248 356 359 22 32 54 76 71 99
39 53 122 196 152 262 13 28 27 58 33 67 5 10 9 23 9 29 0 6 6 25 14 42 26 59
76 231 97 337 37 187 37 533 -1 730 -15 80 -42 183 -50 195 -4 6 -11 26 -15
45 -9 45 -93 220 -152 318 -109 181 -303 387 -468 496 -216 143 -526 267 -755
300 -25 4 -65 11 -90 17 -25 5 -124 18 -220 29 -164 18 -261 26 -750 65 -107
9 -249 20 -315 25 -255 21 -477 51 -559 76 -123 38 -171 85 -170 167 0 45 4
54 37 82 67 58 248 130 567 224 58 17 148 45 200 61 52 16 113 34 135 39 22 5
81 21 130 36 50 14 160 47 245 72 85 24 200 59 255 78 55 18 125 40 155 49
370 114 821 328 1100 524 58 41 247 188 325 252 51 42 388 383 420 424 105
136 136 178 178 238 26 38 47 71 47 75 0 4 20 37 43 73 76 114 157 246 173
286 9 21 32 63 52 93 57 88 82 143 82 179 0 41 -24 100 -51 125 -22 21 -93 32
-120 19z m-969 -769 c0 -5 -20 -21 -45 -38 -24 -16 -45 -33 -45 -36 0 -4 -8
-9 -17 -11 -13 -4 -18 2 -19 19 -2 17 1 21 10 14 8 -6 20 -3 36 9 19 15 21 20
8 20 -9 0 -18 -6 -21 -12 -2 -7 -8 -10 -12 -6 -17 16 8 30 42 23 22 -4 33 -3
29 4 -3 5 2 12 11 14 10 3 19 5 21 6 1 0 2 -2 2 -6z m-235 -69 c15 -15 15 -18
-2 -38 -17 -20 -17 -20 0 -6 15 11 23 11 38 2 11 -7 19 -8 19 -2 0 5 5 10 10
10 21 0 8 -17 -35 -48 -25 -18 -50 -32 -55 -32 -5 0 -30 -16 -56 -35 -42 -32
-72 -46 -61 -27 3 4 -6 7 -20 7 -24 0 -24 0 -4 -14 21 -13 21 -14 -9 -30 -86
-47 -464 -233 -520 -256 -36 -14 -74 -30 -85 -35 -96 -44 -755 -287 -985 -364
-58 -19 -130 -44 -160 -56 -30 -12 -67 -25 -81 -30 -177 -55 -611 -227 -669
-265 -19 -12 -63 -39 -97 -59 -35 -21 -89 -58 -120 -84 -276 -221 -396 -488
-354 -783 12 -80 21 -107 59 -189 23 -48 130 -177 187 -225 54 -45 143 -105
155 -105 4 0 30 -11 57 -24 123 -62 223 -90 578 -160 37 -8 360 -54 469 -67
44 -6 87 -15 96 -22 14 -10 -16 -12 -144 -11 -88 1 -165 2 -171 4 -19 5 -45 0
-45 -9 0 -7 70 -22 115 -25 6 -1 12 -4 15 -7 11 -14 70 -39 91 -39 18 0 21 5
17 35 -4 39 9 45 56 24 41 -19 46 -59 7 -59 -9 0 -26 -7 -37 -15 -12 -10 -14
-14 -5 -13 8 2 17 -5 19 -14 2 -10 -2 -18 -8 -18 -6 0 -8 5 -4 13 6 9 5 9 -7
0 -8 -6 -40 -14 -71 -18 -51 -6 -58 -5 -70 14 -7 12 -17 21 -22 21 -5 0 -17 6
-25 14 -29 26 -127 18 -185 -15 -13 -8 -22 -7 -29 0 -8 8 -5 11 12 11 14 0 21
5 18 13 -2 6 -13 11 -23 9 -69 -12 -84 -13 -84 -4 0 5 15 13 33 17 27 7 29 9
10 12 -12 2 -31 -1 -42 -6 -27 -15 -84 -14 -75 1 5 8 -2 9 -24 5 -18 -4 -40
-3 -49 0 -15 6 -12 9 12 14 18 4 -2 6 -47 5 -79 -1 -96 -9 -55 -26 12 -5 18
-9 12 -10 -18 -3 99 -29 132 -30 17 0 35 -5 39 -11 5 -8 0 -10 -17 -6 -13 3
-61 9 -107 13 -56 4 -82 10 -79 18 3 8 -6 10 -27 8 -32 -4 -82 5 -191 32 -33
8 -89 22 -125 31 -36 9 -69 21 -74 26 -6 5 -17 9 -25 9 -8 0 -33 8 -55 19
-128 59 -177 81 -181 81 -11 0 -182 106 -207 129 -15 13 -25 28 -22 32 3 5 -1
6 -8 4 -14 -5 -122 96 -155 145 -9 14 -19 27 -23 30 -13 11 -69 107 -85 145
-93 224 -101 434 -24 668 10 31 19 64 19 72 0 8 4 15 9 15 5 0 11 14 15 31 3
16 11 36 18 43 7 8 20 24 28 36 8 12 20 28 25 34 6 6 23 30 39 53 16 24 40 54
53 68 15 14 22 29 17 36 -4 8 -3 9 5 5 15 -10 64 41 55 56 -4 6 -3 8 3 5 6 -4
28 10 49 29 57 52 186 143 284 200 71 42 136 72 285 133 11 5 34 14 50 21 17
7 48 18 70 25 22 7 126 43 230 80 105 37 206 71 225 76 19 6 76 24 125 40 50
16 113 37 140 45 28 9 59 19 70 24 11 4 61 20 110 35 50 15 99 30 110 35 11 4
74 24 140 45 66 21 138 43 160 51 41 13 237 73 335 101 30 9 64 19 75 23 44
17 171 54 325 95 36 10 92 25 125 35 33 10 98 28 145 40 62 17 306 91 327 99
1 1 9 -6 18 -15z m-2348 -10 c-3 -3 -12 -4 -19 -1 -8 3 -5 6 6 6 11 1 17 -2
13 -5z m-26 -17 c14 -10 7 -12 -42 -12 -45 0 -55 2 -47 12 13 16 68 16 89 0z
m249 5 c0 -11 -89 -34 -103 -25 -6 3 9 12 34 18 56 16 69 17 69 7z m-380 -34
c-11 -12 -23 -19 -26 -15 -9 9 15 37 33 37 10 0 8 -6 -7 -22z m227 16 c-3 -3
-12 -4 -19 -1 -8 3 -5 6 6 6 11 1 17 -2 13 -5z m-298 -33 c18 -12 6 -42 -14
-35 -18 7 -20 24 -2 24 8 0 7 4 -3 10 -8 5 -10 10 -5 10 6 0 16 -4 24 -9z
m-58 -15 l-25 -14 32 -7 c18 -3 32 -11 32 -16 0 -15 -41 -10 -64 9 -27 21 -15
41 24 41 l25 0 -24 -13z m34 -66 c4 -6 -5 -10 -20 -10 -15 0 -24 4 -20 10 3 6
12 10 20 10 8 0 17 -4 20 -10z m34 -37 c-10 -11 -14 -11 -20 -1 -10 17 -2 28
17 21 11 -4 12 -8 3 -20z m-109 -108 c-7 -8 -16 -15 -21 -15 -5 0 -9 7 -9 15
0 9 9 15 21 15 18 0 19 -2 9 -15z m-305 -85 c3 -5 1 -10 -4 -10 -6 0 -11 5
-11 10 0 6 2 10 4 10 3 0 8 -4 11 -10z m270 -30 c-3 -5 -12 -10 -20 -10 -8 0
-17 5 -20 10 -4 6 5 10 20 10 15 0 24 -4 20 -10z m-575 -71 c0 -5 -4 -9 -10
-9 -5 0 -10 7 -10 16 0 8 5 12 10 9 6 -3 10 -10 10 -16z m-340 -133 c0 -2 3
-12 7 -22 4 -10 2 -15 -3 -11 -15 8 -42 -11 -28 -20 6 -5 7 -18 3 -33 l-7 -25
-1 28 c-1 32 -5 33 -30 8 -18 -18 -18 -19 5 -30 26 -12 32 -31 10 -31 -7 0
-19 -7 -26 -15 -7 -8 -21 -15 -32 -15 -33 0 -52 -27 -40 -56 14 -29 9 -31 -18
-4 -17 17 -18 21 -4 35 14 13 14 18 2 32 -8 11 -9 14 -1 10 7 -5 21 1 33 13
23 23 36 25 43 8 2 -7 8 -10 12 -6 4 4 3 13 -3 21 -13 16 -5 57 12 57 6 0 20
14 29 30 15 25 37 41 37 26z m150 -26 c0 -5 -4 -10 -9 -10 -5 0 -16 -3 -25 -6
-11 -4 -16 -1 -16 10 0 10 9 16 25 16 14 0 25 -4 25 -10z m90 6 c0 -3 -4 -8
-10 -11 -5 -3 -10 -1 -10 4 0 6 5 11 10 11 6 0 10 -2 10 -4z m1117 -12 c-3 -3
-12 -4 -19 -1 -8 3 -5 6 6 6 11 1 17 -2 13 -5z m-1605 -227 c-7 -8 -9 -17 -5
-21 4 -4 0 -4 -9 -1 -15 6 -15 8 0 25 9 11 18 17 20 15 3 -3 0 -11 -6 -18z
m-44 -84 c-10 -2 -18 -9 -18 -14 0 -5 -5 -9 -11 -9 -8 0 -8 5 1 15 7 8 20 14
29 14 13 -1 13 -2 -1 -6z m2839 -1519 c-3 -3 -12 -4 -19 -1 -8 3 -5 6 6 6 11
1 17 -2 13 -5z m640 -60 c-3 -3 -12 -4 -19 -1 -8 3 -5 6 6 6 11 1 17 -2 13 -5z
m-1062 -414 c3 -5 -1 -10 -9 -10 -8 0 -18 5 -21 10 -3 6 1 10 9 10 8 0 18 -4
21 -10z m134 -16 c17 -4 31 -11 31 -17 0 -6 -3 -7 -7 -4 -3 4 -11 3 -17 -2 -6
-4 -21 -11 -33 -14 -18 -4 -23 -1 -23 13 0 13 -9 20 -27 23 -23 3 -22 4 8 6
20 0 51 -2 68 -5z m350 -70 c2 -2 -7 -4 -22 -4 -14 0 -29 5 -32 10 -6 10 42 4
54 -6z m-1184 -14 c26 -11 63 -20 83 -21 20 0 46 -5 57 -10 15 -7 10 -8 -20
-4 -22 2 -68 7 -102 10 -45 5 -60 10 -57 20 3 7 -3 15 -13 18 -10 3 -13 5 -6
6 6 0 32 -8 58 -19z m192 4 c-3 -3 -12 -4 -19 -1 -8 3 -5 6 6 6 11 1 17 -2 13
-5z m1109 -9 c18 -14 17 -14 -12 -15 -19 0 -34 6 -38 15 -7 20 24 20 50 0z
m-678 -25 c12 -11 25 -20 30 -20 4 0 13 -5 20 -12 10 -10 7 -15 -10 -25 l-23
-12 22 -1 c12 0 25 -4 28 -10 9 -14 -39 -12 -120 5 -39 8 -92 15 -119 15 -64
0 -56 6 17 13 34 3 55 2 52 -4 -4 -5 6 -8 22 -8 16 1 21 3 11 6 -10 2 -15 10
-11 19 4 10 -2 14 -21 14 -14 0 -26 5 -26 10 0 6 18 10 39 10 22 0 43 5 46 10
9 15 19 12 43 -10z m70 -7 c5 -18 -16 -16 -35 3 -15 14 -14 16 7 12 13 -1 25
-9 28 -15z m92 -3 c0 -5 -7 -10 -16 -10 -8 0 -12 5 -9 10 3 6 10 10 16 10 5 0
9 -4 9 -10z m58 -7 c-10 -2 -26 -2 -35 0 -10 3 -2 5 17 5 19 0 27 -2 18 -5z
m667 -13 c6 -4 21 -10 35 -13 67 -14 143 -39 177 -57 21 -11 45 -20 53 -20 9
0 20 -4 26 -9 5 -5 34 -14 65 -20 58 -10 189 -70 155 -71 -19 0 -121 32 -161
51 -45 21 -249 89 -266 89 -11 0 -19 5 -19 10 0 6 -13 10 -28 10 -15 0 -32 4
-37 9 -6 5 -32 16 -60 25 l-50 16 50 -6 c28 -4 55 -10 60 -14z m-1237 3 c-10
-2 -28 -2 -40 0 -13 2 -5 4 17 4 22 1 32 -1 23 -4z m507 -7 c25 -11 33 -19 29
-30 -8 -20 -24 -21 -24 -1 0 12 -3 13 -19 3 -15 -9 -25 -9 -43 -1 -18 9 -19
12 -5 12 9 1 17 5 17 10 0 5 -8 12 -17 14 -13 4 -12 5 5 6 12 0 38 -6 57 -13z
m-432 -3 c-7 -2 -19 -2 -25 0 -7 3 -2 5 12 5 14 0 19 -2 13 -5z m552 -24 c-8
-12 -35 -12 -35 0 0 11 22 20 33 14 4 -2 5 -9 2 -14z m-152 -36 c-7 -2 -21 -2
-30 0 -10 3 -4 5 12 5 17 0 24 -2 18 -5z m109 -11 c9 -9 1 -12 -35 -12 -33 0
-45 4 -42 13 6 15 62 14 77 -1z m330 -9 c-19 -8 -3 -23 26 -24 l27 -1 -25 -8
c-14 -4 -36 -8 -50 -8 -23 -1 -23 0 -5 8 19 8 19 9 -2 9 -23 1 -29 11 -16 24
3 4 18 7 32 6 14 0 20 -3 13 -6z m183 -18 c0 -12 -8 -21 -20 -23 -23 -4 -65
-45 -65 -63 0 -7 -9 -9 -22 -5 -13 3 -32 6 -43 7 -11 0 -14 3 -7 6 24 10 12
25 -15 18 -24 -6 -25 -5 -13 10 8 10 23 15 37 12 15 -3 23 1 23 9 0 9 12 14
35 14 32 0 40 8 36 33 -1 5 11 7 26 5 20 -2 28 -9 28 -23z m-410 0 l30 -13
-27 -1 c-16 -1 -28 3 -28 8 0 6 -15 12 -32 14 l-33 4 30 1 c17 1 44 -5 60 -13z
m88 -22 c-7 -2 -21 -2 -30 0 -10 3 -4 5 12 5 17 0 24 -2 18 -5z m359 -100 c10
-9 21 -13 25 -9 4 4 1 12 -7 17 -11 8 -8 8 10 3 14 -4 27 -10 30 -14 3 -4 12
-10 20 -13 8 -4 -1 -4 -20 -1 -33 6 -34 5 -15 -10 11 -8 15 -16 8 -16 -6 0
-15 5 -18 10 -3 6 -13 10 -22 10 -13 0 -13 -3 -3 -15 17 -20 8 -19 -37 6 -45
25 -62 39 -46 39 7 0 15 -4 18 -10 8 -13 35 -13 35 -1 0 5 -8 12 -17 14 -16 4
-16 5 1 6 11 0 28 -6 38 -16z m764 -8 c16 -8 40 -12 54 -9 l25 4 -24 -10 c-23
-10 -82 2 -105 22 -17 14 20 9 50 -7z m97 -42 c-7 -2 -21 -2 -30 0 -10 3 -4 5
12 5 17 0 24 -2 18 -5z m-680 -23 c17 -8 26 -19 22 -28 -3 -7 -5 -18 -5 -24 0
-6 -7 -7 -17 -3 -10 4 -29 9 -43 10 -38 4 -40 4 -40 15 0 6 6 10 14 10 7 0 16
9 19 21 3 12 9 19 14 17 4 -2 21 -10 36 -18z m122 -114 c14 -27 11 -36 -16
-36 -9 0 -19 -5 -21 -12 -3 -7 -7 -5 -11 6 -4 11 -3 15 4 10 7 -4 10 -1 7 7
-3 8 -12 13 -21 13 -12 -1 -15 5 -11 26 4 17 0 32 -10 43 -30 29 -16 29 25 -2
23 -16 47 -41 54 -55z m785 44 c18 -12 2 -12 -25 0 -13 6 -15 9 -5 9 8 0 22
-4 30 -9z m73 -37 c-7 -2 -19 -2 -25 0 -7 3 -2 5 12 5 14 0 19 -2 13 -5z
m-733 -68 c0 -8 -4 -15 -9 -15 -5 0 -11 7 -15 15 -3 9 0 15 9 15 8 0 15 -7 15
-15z m-32 -29 c3 -13 -1 -17 -14 -14 -11 2 -20 11 -22 22 -3 13 1 17 14 14 11
-2 20 -11 22 -22z m942 14 c0 -5 -9 -10 -20 -10 -11 0 -20 5 -20 10 0 6 9 10
20 10 11 0 20 -4 20 -10z m-985 -40 c7 -11 16 -50 11 -50 -1 0 -12 14 -24 30
-17 23 -19 30 -8 30 8 0 18 -4 21 -10z m56 -60 c5 0 9 5 9 12 0 6 2 9 5 7 7
-8 -6 -47 -18 -52 -8 -3 -12 9 -13 32 -1 20 1 28 3 19 3 -10 9 -18 14 -18z
m49 -138 c0 -15 -2 -15 -10 -2 -13 20 -13 33 0 25 6 -3 10 -14 10 -23z m67
-137 c-3 -15 -5 -13 -6 7 0 15 -6 30 -11 33 -6 4 -7 11 -4 17 10 15 26 -30 21
-57z m-23 -4 c18 -57 22 -258 5 -331 -6 -25 -12 -57 -14 -73 -2 -15 -17 -55
-33 -90 -17 -34 -31 -66 -32 -72 -1 -5 -9 -19 -16 -30 -8 -11 -14 -29 -14 -40
0 -11 -3 -15 -8 -9 -4 6 -14 3 -26 -10 -16 -16 -16 -18 -3 -13 14 5 15 4 4
-13 -6 -11 -15 -20 -19 -20 -10 0 -88 -80 -88 -90 0 -6 -6 -10 -13 -10 -8 0
-26 -15 -42 -34 -16 -19 -33 -32 -38 -29 -4 3 -11 -4 -14 -16 -3 -12 -12 -21
-19 -21 -8 0 -14 -4 -14 -10 0 -5 -5 -10 -11 -10 -13 0 -119 -68 -119 -76 0
-3 9 -2 20 1 11 3 20 3 20 -2 -1 -19 -29 -43 -50 -43 -19 0 -20 2 -10 15 7 9
11 17 9 20 -5 4 -90 -35 -99 -46 -7 -8 -44 -22 -52 -21 -16 4 -7 -18 12 -28
26 -14 25 -21 -5 -54 -25 -27 -45 -34 -45 -16 0 6 5 10 10 10 19 0 47 36 36
46 -25 23 -38 24 -81 4 -25 -11 -57 -25 -72 -31 -26 -10 -27 -12 -8 -19 11 -5
32 -11 48 -14 31 -7 37 -26 7 -26 -11 0 -20 4 -20 9 0 5 -12 12 -27 15 -16 4
-37 9 -48 12 -15 4 -16 3 -6 -4 15 -11 -2 -27 -18 -17 -5 3 -12 1 -16 -5 -3
-5 3 -10 14 -10 22 0 30 -19 9 -21 -7 0 2 -7 20 -15 17 -8 32 -17 32 -20 0 -3
-4 -3 -9 0 -5 4 -11 0 -14 -6 -5 -15 12 -68 21 -67 21 3 32 -2 26 -13 -12 -18
-11 -87 1 -79 16 12 65 12 65 0 0 -6 -7 -17 -15 -26 -23 -23 -11 -27 26 -9 38
19 39 19 39 6 0 -5 -6 -10 -12 -10 -7 0 -26 -7 -43 -16 -16 -9 -51 -17 -77
-17 -38 -1 -45 -3 -36 -14 10 -12 6 -14 -27 -13 -3 0 -18 -6 -35 -15 -16 -8
-33 -15 -37 -15 -14 1 39 40 53 40 8 0 14 5 14 10 0 6 -6 10 -13 10 -7 0 -30
9 -52 20 -22 11 -44 20 -49 20 -11 0 23 -34 44 -44 8 -3 2 -4 -14 -2 -17 2
-36 -2 -43 -10 -9 -9 -36 -14 -72 -14 -40 0 -63 -5 -71 -15 -18 -22 -11 -25
63 -28 74 -2 75 -19 2 -31 -31 -5 -36 -4 -25 4 11 9 -2 10 -55 6 -45 -3 -63
-2 -50 4 25 11 0 11 -35 0 -24 -8 -24 -8 -2 -9 23 -1 32 -21 9 -21 -7 0 -29
-9 -48 -19 -20 -11 -50 -19 -67 -19 -35 1 -68 -20 -54 -34 11 -11 89 9 113 29
8 7 22 13 29 13 7 0 21 7 31 16 11 10 25 13 39 9 l22 -7 -24 -11 c-12 -7 -57
-23 -98 -37 -41 -14 -77 -28 -80 -31 -3 -4 -21 -10 -40 -14 -19 -4 -41 -11
-50 -16 -19 -10 -149 -49 -164 -49 -6 0 -24 -7 -41 -16 -16 -9 -51 -17 -77
-17 -46 -1 -62 -10 -35 -20 7 -4 6 -6 -4 -6 -9 -1 -20 7 -23 16 -6 15 -8 15
-16 3 -6 -10 -26 -15 -62 -14 -29 0 -47 -1 -40 -4 20 -6 14 -21 -7 -15 -10 3
-22 0 -25 -6 -4 -6 -22 -11 -39 -11 -26 -1 -29 -2 -15 -11 12 -7 24 -6 37 1
11 5 30 10 43 9 l23 0 -25 -12 c-14 -6 -45 -20 -69 -31 -26 -12 -64 -19 -93
-19 -26 0 -48 -4 -48 -9 0 -6 -6 -8 -12 -5 -7 2 -22 1 -33 -4 -17 -6 -15 -8
10 -9 17 -1 23 -4 15 -7 -8 -2 -24 -8 -35 -13 -11 -4 -51 -18 -90 -29 -38 -12
-106 -35 -150 -51 -77 -27 -174 -51 -130 -31 20 9 20 9 1 17 -19 7 -19 8 0 15
14 6 9 8 -18 8 -38 1 -57 -12 -36 -25 8 -5 6 -10 -8 -15 -17 -7 -17 -8 -1 -8
37 -2 13 -18 -70 -46 -49 -17 -90 -33 -93 -36 -3 -3 -16 -8 -30 -11 -14 -3
-33 -9 -42 -13 -10 -4 -18 -3 -18 3 0 5 17 13 37 17 21 4 41 11 44 16 3 6 21
12 39 14 19 3 38 11 42 20 5 8 18 15 28 15 11 0 20 5 20 10 0 6 -9 10 -20 10
-11 0 -20 5 -20 10 0 6 16 10 36 10 28 0 35 3 30 15 -4 10 2 19 17 25 12 5 18
9 12 10 -5 0 -3 5 5 10 22 14 81 11 110 -5 33 -19 95 -19 114 0 8 8 25 19 38
24 l23 10 -23 0 c-35 1 -21 25 16 29 22 2 29 7 25 18 -3 9 2 14 16 14 12 0 21
5 21 10 0 6 -11 10 -24 10 -25 0 -44 26 -24 32 21 7 -3 28 -30 28 -22 0 -28
-5 -30 -25 -1 -16 5 -28 16 -33 23 -9 26 -30 4 -35 -80 -22 -92 -15 -98 60 -5
62 3 71 86 110 21 9 30 18 22 21 -8 2 -19 -1 -25 -7 -6 -6 -18 -11 -26 -11 -9
0 -43 -14 -76 -30 -33 -16 -68 -30 -77 -30 -10 0 -18 -3 -18 -8 0 -9 -54 -37
-88 -47 -30 -9 -110 -54 -97 -56 6 0 33 0 61 1 52 1 76 -12 56 -32 -14 -14
-92 -21 -92 -8 0 5 -7 10 -15 10 -8 0 -15 5 -15 10 0 6 -9 10 -20 10 -11 0
-20 -4 -20 -10 0 -5 9 -10 20 -10 11 0 20 -4 20 -10 0 -14 -26 -13 -50 2 -15
10 -22 10 -32 0 -6 -6 -16 -12 -21 -12 -12 0 26 28 73 55 185 103 313 165 560
270 74 31 149 63 167 71 17 8 36 14 42 14 6 0 19 4 29 10 9 5 60 26 112 46
119 45 181 69 350 134 74 29 164 63 200 77 157 59 343 132 407 159 17 8 35 14
40 14 5 0 50 17 99 39 370 161 592 338 717 571 71 132 109 351 82 475 -24 111
-19 141 9 56z m26 -593 c0 -16 -3 -19 -11 -11 -6 6 -8 16 -5 22 11 17 16 13
16 -11z m299 -107 c-15 -5 -22 6 -14 19 6 9 10 9 16 -1 5 -8 4 -15 -2 -18z
m-429 -11 c6 -11 8 -20 6 -20 -3 0 -10 9 -16 20 -6 11 -8 20 -6 20 3 0 10 -9
16 -20z m403 -5 c3 -18 -2 -30 -17 -41 -19 -13 -21 -13 -25 3 -2 9 2 19 8 21
6 2 11 12 11 23 0 28 17 23 23 -6z m-483 -109 c0 -3 -4 -8 -10 -11 -5 -3 -10
-1 -10 4 0 6 5 11 10 11 6 0 10 -2 10 -4z m380 -66 c0 -5 -4 -10 -10 -10 -5 0
-10 5 -10 10 0 6 5 10 10 10 6 0 10 -4 10 -10z m-509 -27 c-11 -4 -11 -7 0
-13 10 -7 10 -12 1 -23 -16 -18 -52 -29 -52 -15 0 6 -7 8 -15 4 -9 -3 -15 0
-15 10 0 10 6 14 15 10 9 -3 15 0 15 9 0 13 19 22 50 23 12 0 12 -1 1 -5z
m-114 -75 c-3 -8 -6 -5 -6 6 -1 11 2 17 5 13 3 -3 4 -12 1 -19z m-17 -38 c0
-13 -61 -50 -80 -49 -11 1 -10 3 3 6 9 2 17 8 17 13 0 7 31 28 58 39 1 1 2 -4
2 -9z m-153 -46 c-3 -3 -12 -4 -19 -1 -8 3 -5 6 6 6 11 1 17 -2 13 -5z m320
-41 c-8 -7 -37 9 -31 19 3 5 12 4 20 -3 8 -6 13 -14 11 -16z m-433 -23 c-24
-24 -31 -26 -56 -16 l-29 11 25 6 c14 4 33 14 41 23 9 8 22 13 31 9 12 -4 10
-11 -12 -33z m721 30 c13 -6 15 -9 5 -9 -8 0 -22 4 -30 9 -18 12 -2 12 25 0z
m-45 -4 c0 -3 -4 -8 -10 -11 -5 -3 -10 -1 -10 4 0 6 5 11 10 11 6 0 10 -2 10
-4z m-140 -79 c0 -12 -50 -47 -67 -47 -6 0 56 59 65 60 1 0 2 -6 2 -13z m-656
-3 c25 -9 19 -24 -9 -24 -16 0 -25 6 -25 15 0 16 9 19 34 9z m123 -10 c-3 -3
-12 -4 -19 -1 -8 3 -5 6 6 6 11 1 17 -2 13 -5z m353 -18 c0 -8 -14 -15 -35
-18 -40 -5 -45 2 -12 18 31 16 47 16 47 0z m-357 -46 c10 0 19 -11 23 -27 8
-33 21 -43 54 -42 l25 0 -22 11 c-32 16 -28 28 8 28 19 0 37 -7 45 -17 11 -15
9 -20 -9 -30 -21 -12 -21 -12 6 -13 21 0 30 6 34 20 5 20 33 29 33 10 0 -6 15
-8 39 -4 24 4 41 2 45 -5 5 -7 -3 -11 -21 -12 -22 0 -24 -2 -10 -8 14 -5 -13
-17 -93 -45 -61 -20 -117 -35 -123 -33 -7 3 0 8 16 12 52 14 31 30 -35 25 -14
-1 -29 3 -33 9 -3 6 -16 11 -28 11 -19 0 -22 6 -24 43 -2 23 0 57 3 76 l5 33
23 -21 c12 -11 30 -21 39 -21z m386 6 c-2 -2 -21 -6 -42 -10 -27 -5 -37 -4
-32 3 3 6 22 11 42 11 20 0 34 -2 32 -4z m1 -40 c0 -2 -9 -6 -20 -9 -11 -3
-20 -1 -20 4 0 5 9 9 20 9 11 0 20 -2 20 -4z m-53 -32 c-3 -3 -12 -4 -19 -1
-8 3 -5 6 6 6 11 1 17 -2 13 -5z m-772 -264 c3 -5 -3 -10 -14 -10 -11 0 -23 5
-26 10 -3 6 3 10 14 10 11 0 23 -4 26 -10z m-1397 -246 c-34 -18 -36 -28 -4
-20 20 5 23 3 19 -13 -5 -19 -6 -19 -38 -3 l-32 17 26 17 c14 9 33 17 41 17 8
0 3 -7 -12 -15z m709 0 c-3 -3 -12 -4 -19 -1 -8 3 -5 6 6 6 11 1 17 -2 13 -5z
m-44 -21 c-7 -2 -19 -2 -25 0 -7 3 -2 5 12 5 14 0 19 -2 13 -5z m-702 -33 c20
-16 21 -19 7 -20 -10 0 -18 5 -18 10 0 6 -9 10 -19 10 -11 0 -23 -4 -26 -10
-3 -5 -10 -10 -16 -10 -5 0 -9 5 -9 10 0 6 7 10 15 10 8 0 15 5 15 10 0 16 26
11 51 -10z m-181 -100 c0 -5 -7 -10 -16 -10 -8 0 -12 5 -9 10 3 6 10 10 16 10
5 0 9 -4 9 -10z m-100 -14 c0 -2 -7 -7 -16 -10 -8 -3 -12 -2 -9 4 6 10 25 14
25 6z m-80 -16 c0 -5 11 -10 25 -10 18 0 25 -5 25 -18 0 -29 -10 -32 -33 -12
-13 13 -25 16 -36 11 -9 -5 -25 -5 -36 -1 -18 7 -18 8 8 15 15 4 27 11 27 16
0 5 5 9 10 9 6 0 10 -4 10 -10z m-85 -90 c-3 -5 -10 -10 -16 -10 -5 0 -9 5 -9
10 0 6 7 10 16 10 8 0 12 -4 9 -10z m93 -24 c16 -18 16 -19 -8 -13 -14 4 -38
7 -55 7 -28 1 -29 2 -12 15 25 18 54 15 75 -9z m-32 -31 c-11 -8 -25 -15 -30
-15 -6 0 -2 7 8 15 11 8 25 15 30 15 6 0 2 -7 -8 -15z m84 5 c0 -5 -5 -10 -11
-10 -5 0 -7 5 -4 10 3 6 8 10 11 10 2 0 4 -4 4 -10z m-225 -10 c-3 -5 -10 -10
-16 -10 -5 0 -9 5 -9 10 0 6 7 10 16 10 8 0 12 -4 9 -10z m95 -4 c0 -2 -7 -6
-15 -10 -8 -3 -15 -1 -15 4 0 6 7 10 15 10 8 0 15 -2 15 -4z m97 -2 c-3 -3
-12 -4 -19 -1 -8 3 -5 6 6 6 11 1 17 -2 13 -5z m-12 -24 c13 -6 15 -9 5 -9 -8
-1 -26 -7 -40 -14 -35 -19 -90 -29 -90 -17 0 5 11 12 25 16 14 3 25 10 25 15
0 5 12 7 28 3 21 -4 24 -3 12 5 -13 10 -13 11 0 10 8 0 24 -4 35 -9z m-142
-67 c-7 -2 -19 -2 -25 0 -7 3 -2 5 12 5 14 0 19 -2 13 -5z m-46 -9 c-3 -3 -12
-4 -19 -1 -8 3 -5 6 6 6 11 1 17 -2 13 -5z m-40 -20 c-3 -3 -12 -4 -19 -1 -8
3 -5 6 6 6 11 1 17 -2 13 -5z"/>
<path d="M6805 8310 c3 -5 -1 -10 -9 -10 -9 0 -16 -6 -16 -14 0 -8 -6 -16 -12
-19 -10 -4 -10 -7 0 -18 10 -11 12 -10 12 4 0 9 5 17 11 17 6 0 22 9 35 19 20
16 21 20 8 25 -23 9 -36 7 -29 -4z"/>
<path d="M6805 8250 c-16 -7 -17 -9 -3 -9 9 -1 20 4 23 9 7 11 7 11 -20 0z"/>
<path d="M6428 8023 c7 -3 16 -2 19 1 4 3 -2 6 -13 5 -11 0 -14 -3 -6 -6z"/>
<path d="M3440 5790 c-9 -6 -10 -10 -3 -10 6 0 15 5 18 10 8 12 4 12 -15 0z"/>
<path d="M3405 5780 c3 -5 8 -10 11 -10 2 0 4 5 4 10 0 6 -5 10 -11 10 -5 0
-7 -4 -4 -10z"/>
<path d="M3970 5680 c0 -13 11 -13 30 0 12 8 11 10 -7 10 -13 0 -23 -4 -23
-10z"/>
<path d="M4070 5630 c-12 -8 -9 -10 12 -10 15 0 30 5 33 10 8 13 -25 13 -45 0z"/>
<path d="M3656 5605 c-11 -9 -14 -15 -7 -15 7 0 19 7 27 15 20 19 5 19 -20 0z"/>
<path d="M3740 5609 c0 -6 -9 -9 -20 -6 -11 3 -20 1 -20 -4 0 -10 15 -11 48
-3 25 7 30 24 7 24 -8 0 -15 -5 -15 -11z"/>
<path d="M4225 5580 c-3 -6 0 -12 7 -14 69 -22 90 -27 95 -23 10 11 -9 27 -32
27 -13 0 -27 5 -30 10 -8 13 -32 13 -40 0z"/>
<path d="M4180 5552 c0 -4 6 -14 12 -20 10 -10 10 -15 -2 -22 -8 -5 -10 -10
-5 -11 49 -4 92 -16 127 -34 19 -9 35 -12 41 -6 5 5 4 11 -2 15 -19 12 -12 25
17 29 25 4 25 4 -5 6 -18 0 -33 6 -33 11 0 6 -11 10 -25 10 -14 0 -42 7 -62
15 -39 17 -63 19 -63 7z"/>
<path d="M4340 5538 c0 -4 14 -8 31 -8 36 0 63 -23 56 -50 -4 -14 0 -18 17
-14 11 2 27 13 35 24 14 21 46 27 56 10 4 -6 11 -7 17 -4 19 12 -46 33 -129
41 -46 5 -83 5 -83 1z"/>
<path d="M4620 5483 c-59 -6 -68 -13 -40 -28 36 -20 161 -20 186 1 10 8 14 13
8 10 -7 -3 -31 1 -54 9 -23 8 -48 14 -54 13 -6 0 -27 -3 -46 -5z"/>
<path d="M4522 5460 c0 -14 2 -19 5 -12 2 6 2 18 0 25 -3 6 -5 1 -5 -13z"/>
<path d="M4880 5442 c0 -10 21 -14 123 -27 39 -6 41 -5 23 10 -11 8 -27 15
-37 15 -9 0 -37 3 -63 6 -29 4 -46 3 -46 -4z"/>
<path d="M4125 5430 c-16 -25 18 -40 89 -40 60 0 73 3 83 20 12 18 10 19 -31
16 -24 -2 -49 -7 -55 -10 -6 -4 -15 -5 -20 -2 -5 4 -11 0 -13 -6 -3 -8 -9 -4
-17 10 -13 24 -26 28 -36 12z"/>
<path d="M4348 5393 c7 -3 16 -2 19 1 4 3 -2 6 -13 5 -11 0 -14 -3 -6 -6z"/>
<path d="M4355 5350 c-18 -8 -17 -9 8 -9 16 -1 26 3 22 9 -3 6 -7 10 -8 9 -1
0 -11 -4 -22 -9z"/>
<path d="M5500 3125 c-25 -14 -25 -14 18 -21 30 -5 40 -10 33 -17 -7 -7 -18
-7 -33 1 -38 18 -68 24 -68 13 0 -6 26 -18 58 -28 53 -17 55 -18 25 -21 -18
-2 -33 -7 -33 -13 0 -5 -7 -9 -15 -9 -9 0 -18 -12 -21 -30 -6 -28 -10 -30 -49
-30 -35 0 -46 -5 -59 -25 -18 -27 -56 -34 -56 -10 0 8 -4 15 -9 15 -5 0 -16
-7 -25 -15 -22 -22 -25 -19 -19 20 l6 35 -34 -6 c-41 -8 -43 -10 -34 -23 4 -8
12 -8 26 -1 22 12 25 5 5 -15 -7 -8 -23 -11 -35 -8 -15 4 -21 1 -21 -10 0 -9
5 -19 10 -22 7 -4 8 -11 2 -18 -5 -7 -7 -27 -5 -44 5 -28 9 -33 33 -33 23 0
30 5 35 30 7 32 7 32 88 14 26 -5 27 -4 27 36 l0 41 109 -7 c102 -6 109 -6
123 14 10 15 24 21 44 19 23 -2 30 2 32 20 2 14 -4 27 -17 35 -20 12 -29 30
-13 26 14 -3 42 14 36 23 -9 15 -54 10 -54 -6 0 -8 -4 -15 -9 -15 -5 0 -7 8
-4 18 2 10 -2 24 -11 31 -8 7 -12 20 -9 29 6 15 4 15 -10 4 -9 -8 -22 -10 -28
-6 -9 5 -7 10 7 15 18 7 18 8 -1 8 -11 0 -31 -6 -45 -14z"/>
<path d="M5408 3083 c6 -2 18 -2 25 0 6 3 1 5 -13 5 -14 0 -19 -2 -12 -5z"/>
<path d="M5353 3066 c-27 -13 -29 -22 -7 -30 25 -10 56 3 52 22 -4 20 -17 22
-45 8z"/>
<path d="M5205 3010 c-19 -8 -19 -9 3 -9 12 -1 22 4 22 9 0 6 -1 10 -2 9 -2 0
-12 -4 -23 -9z"/>
<path d="M5146 2981 c-4 -5 -31 -15 -61 -21 -30 -6 -55 -16 -55 -21 0 -5 -8
-10 -17 -10 -10 -1 0 -5 22 -10 22 -4 53 -5 69 -2 28 5 29 6 11 19 -14 11 -15
14 -4 14 20 0 56 27 47 35 -3 3 -9 2 -12 -4z m-59 -57 c-3 -3 -12 -4 -19 -1
-8 3 -5 6 6 6 11 1 17 -2 13 -5z"/>
<path d="M4940 2912 c0 -5 -10 -14 -22 -20 -18 -8 -19 -11 -5 -11 9 -1 26 8
37 19 16 16 17 20 5 20 -8 0 -15 -4 -15 -8z"/>
<path d="M5660 2913 c8 -3 18 -11 22 -17 4 -6 10 -7 15 -3 9 10 -16 27 -37 26
-13 -1 -13 -1 0 -6z"/>
<path d="M4985 2900 c3 -5 8 -10 11 -10 2 0 4 5 4 10 0 6 -5 10 -11 10 -5 0
-7 -4 -4 -10z"/>
<path d="M4955 2870 c4 -6 11 -8 16 -5 14 9 11 15 -7 15 -8 0 -12 -5 -9 -10z"/>
<path d="M4790 2850 c0 -5 7 -7 15 -4 8 4 15 8 15 10 0 2 -7 4 -15 4 -8 0 -15
-4 -15 -10z"/>
<path d="M4839 2847 c-8 -8 -21 -17 -29 -20 -8 -4 2 -5 23 -2 36 6 50 -6 26
-21 -8 -4 -7 -9 2 -15 11 -7 10 -9 -3 -9 -10 0 -18 -4 -18 -10 0 -5 6 -10 14
-10 8 0 16 -5 18 -11 2 -7 10 -4 18 7 9 11 10 15 3 10 -20 -12 -16 25 5 40 10
8 12 13 5 14 -7 0 -21 9 -31 21 -17 17 -22 18 -33 6z"/>
<path d="M4930 2835 c7 -8 16 -15 21 -15 5 0 6 7 3 15 -4 8 -13 15 -21 15 -13
0 -13 -3 -3 -15z"/>
<path d="M5066 2834 c-23 -22 -21 -24 22 -23 20 0 32 3 25 5 -7 3 -9 12 -6 20
7 19 -21 18 -41 -2z"/>
<path d="M4762 2816 c7 -8 15 -12 17 -11 5 6 -10 25 -20 25 -5 0 -4 -6 3 -14z"/>
<path d="M5013 2803 c-16 -6 -17 -59 -1 -69 7 -4 8 -3 4 5 -9 13 13 37 40 44
17 4 17 5 -3 6 -12 0 -23 5 -25 10 -1 4 -9 6 -15 4z"/>
<path d="M5114 2784 c3 -9 6 -18 6 -20 0 -2 6 -4 14 -4 9 0 12 7 9 20 -3 11
-12 20 -20 20 -10 0 -13 -6 -9 -16z"/>
<path d="M4614 2774 c3 -8 0 -14 -6 -14 -6 0 -9 -3 -5 -6 7 -8 47 5 47 16 0 4
-9 10 -21 13 -15 4 -19 2 -15 -9z"/>
<path d="M4465 2713 c-29 -26 -29 -26 -5 -19 14 5 35 9 48 10 12 0 22 5 22 10
0 4 8 5 18 2 14 -5 14 -4 -2 9 -28 21 -47 18 -81 -12z"/>
<path d="M4667 2734 c-4 -4 -7 -16 -7 -26 0 -11 -4 -16 -10 -13 -5 3 -10 2
-10 -3 0 -5 -20 -13 -45 -16 -52 -8 -55 -16 -19 -45 46 -36 94 -23 94 26 0 17
6 23 23 23 42 0 67 12 67 31 0 11 -1 19 -2 20 -26 6 -86 8 -91 3z"/>
<path d="M4913 2683 c15 -2 39 -2 55 0 15 2 2 4 -28 4 -30 0 -43 -2 -27 -4z"/>
<path d="M5120 2680 c0 -12 28 -25 36 -17 3 3 -4 10 -15 17 -15 7 -21 7 -21 0z"/>
<path d="M4285 2644 c-8 -9 -22 -14 -29 -11 -10 4 -12 0 -9 -14 3 -10 8 -19
12 -19 9 1 33 22 50 43 17 22 -2 23 -24 1z"/>
<path d="M4938 2633 c-9 -8 -27 -16 -42 -16 -14 -1 -26 -5 -26 -9 0 -4 -7 -5
-15 -2 -18 7 -49 -22 -40 -37 8 -12 56 -3 67 14 3 6 29 18 58 26 45 14 49 17
32 28 -15 9 -22 8 -34 -4z"/>
<path d="M5025 2640 c-3 -5 3 -10 15 -10 12 0 18 5 15 10 -3 6 -10 10 -15 10
-5 0 -12 -4 -15 -10z"/>
<path d="M4293 2605 c-17 -19 -16 -23 5 -21 10 0 16 -5 14 -13 -2 -11 14 -13
90 -8 51 4 94 7 96 7 1 0 2 6 2 14 0 21 -59 33 -114 23 -32 -5 -52 -5 -59 2
-14 14 -19 13 -34 -4z"/>
<path d="M4675 2550 c-3 -5 3 -10 15 -10 12 0 18 5 15 10 -3 6 -10 10 -15 10
-5 0 -12 -4 -15 -10z"/>
<path d="M4568 2533 c12 -2 30 -2 40 0 9 3 -1 5 -23 4 -22 0 -30 -2 -17 -4z"/>
<path d="M4328 2433 c7 -3 16 -2 19 1 4 3 -2 6 -13 5 -11 0 -14 -3 -6 -6z"/>
<path d="M4328 2403 c6 -2 18 -2 25 0 6 3 1 5 -13 5 -14 0 -19 -2 -12 -5z"/>
<path d="M4043 2333 c22 -6 22 -23 0 -23 -14 0 -15 -2 -4 -12 11 -10 14 -10
18 0 3 6 12 12 21 12 15 1 14 3 -2 15 -11 8 -27 14 -35 14 -13 -1 -12 -2 2 -6z"/>
<path d="M6245 3430 c-3 -5 1 -10 10 -10 9 0 13 5 10 10 -3 6 -8 10 -10 10 -2
0 -7 -4 -10 -10z"/>
<path d="M5846 3048 c-17 -9 -16 -11 10 -23 54 -24 89 -32 109 -24 17 6 16 8
-8 8 -16 1 -43 12 -60 25 -25 19 -36 22 -51 14z"/>
<path d="M6088 3003 c7 -3 16 -2 19 1 4 3 -2 6 -13 5 -11 0 -14 -3 -6 -6z"/>
<path d="M6024 2989 c-3 -5 6 -9 20 -9 31 0 34 6 6 13 -11 3 -23 1 -26 -4z"/>
<path d="M5978 2973 c7 -3 16 -2 19 1 4 3 -2 6 -13 5 -11 0 -14 -3 -6 -6z"/>
<path d="M4005 8210 c-3 -5 -20 -14 -38 -19 -27 -7 -29 -10 -14 -16 12 -5 28
0 49 15 24 18 32 20 39 9 4 -7 11 -10 16 -6 8 9 -15 27 -34 27 -6 0 -15 -4
-18 -10z"/>
<path d="M3890 8163 l-35 -13 38 6 c22 3 37 1 34 -3 -3 -5 -2 -15 3 -23 7 -12
10 -12 15 3 4 9 1 23 -7 30 -11 12 -19 12 -48 0z"/>
<path d="M3868 8123 c6 -2 18 -2 25 0 6 3 1 5 -13 5 -14 0 -19 -2 -12 -5z"/>
<path d="M3780 8110 c0 -5 5 -10 10 -10 6 0 10 5 10 10 0 6 -4 10 -10 10 -5 0
-10 -4 -10 -10z"/>
<path d="M3890 8090 c20 -13 43 -13 35 0 -3 6 -16 10 -28 10 -18 0 -19 -2 -7
-10z"/>
<path d="M3825 8080 c4 -6 11 -8 16 -5 14 9 11 15 -7 15 -8 0 -12 -5 -9 -10z"/>
<path d="M3670 8050 c0 -5 5 -10 11 -10 5 0 7 5 4 10 -3 6 -8 10 -11 10 -2 0
-4 -4 -4 -10z"/>
<path d="M3621 8021 c-13 -12 -18 -22 -11 -26 13 -8 30 3 30 20 0 9 6 12 17 8
11 -4 14 -3 9 5 -10 17 -19 15 -45 -7z"/>
<path d="M3680 8011 c0 -5 7 -12 16 -15 24 -9 27 -7 10 9 -17 17 -26 19 -26 6z"/>
<path d="M3645 7990 c-3 -5 1 -10 9 -10 9 0 16 5 16 10 0 6 -4 10 -9 10 -6 0
-13 -4 -16 -10z"/>
<path d="M3461 7922 c-46 -32 -83 -62 -83 -67 1 -6 21 -10 44 -11 24 0 37 1
31 3 -18 6 -16 23 3 23 8 0 12 5 9 10 -4 7 -11 7 -18 2 -7 -5 -23 -13 -37 -17
l-25 -7 25 19 c14 11 36 24 50 28 24 7 108 75 93 75 -5 0 -46 -26 -92 -58z"/>
<path d="M3562 7949 c-6 -14 -27 -34 -46 -43 -20 -9 -34 -22 -30 -27 13 -21
98 52 91 79 -3 13 -6 11 -15 -9z"/>
<path d="M3688 7953 c7 -3 16 -2 19 1 4 3 -2 6 -13 5 -11 0 -14 -3 -6 -6z"/>
<path d="M3291 7796 c-18 -13 -28 -26 -24 -29 5 -3 22 7 37 24 34 35 30 37
-13 5z"/>
</g>
</svg>
